<svg version="1.1" viewBox="0 0 144 144" xmlns="http://www.w3.org/2000/svg">
<g transform="translate(0 -908.36)">
<path transform="scale(.82874 1.2066)" d="m86.692 856.38h-27.513l-25.994-34.814-5.2572 6.367v28.447h-22.431v-86.977h22.431v39.37l31.076-39.37h25.994l-33.996 40.247z" fill="#d40000" stroke-width="1.0109" aria-label="K"/>
<path transform="scale(.9009 1.11)" d="m154.53 901.82q0 7.0603-2.6715 12.467-2.6715 5.4065-7.1875 8.9049-5.3429 4.198-11.767 5.979-6.3606 1.781-16.22 1.781h-33.584v-94.71h28.05q10.368 0 15.52 0.76328 5.1521 0.76328 9.859 3.1803 5.2157 2.7351 7.5692 7.0603 2.3534 4.2616 2.3534 10.241 0 6.7423-3.4348 11.513-3.4348 4.7069-9.1593 7.5692v0.50885q9.6046 1.9718 15.138 8.4597 5.5338 6.4242 5.5338 16.283zm-21.181-42.68q0-3.4348-1.1449-5.7882-1.1449-2.3534-3.6892-3.8164-2.9895-1.7174-7.2511-2.099-4.2616-0.44525-10.559-0.44525h-15.011v27.351h16.283q5.9154 0 9.4138-0.57246 3.4984-0.63607 6.4879-2.5443 2.9895-1.9082 4.198-4.8977 1.2721-3.0531 1.2721-7.1875zm8.078 43.189q0-5.7246-1.7174-9.0957-1.7174-3.3711-6.2334-5.7246-3.0531-1.5902-7.442-2.0354-4.3252-0.50886-10.559-0.50886h-19.782v35.238h16.665q8.2688 0 13.548-0.82689 5.2793-0.89049 8.6505-3.1803 3.562-2.4806 5.2157-5.661 1.6538-3.1803 1.6538-8.2052z" fill="#2b0000" stroke-width="1.0012" aria-label="B"/>
</g>
</svg>
